<?xml version="1.0" encoding="UTF-8" standalone="no"?>
<svg
   height="297mm"
   viewBox="0 0 210 297"
   width="210mm"
   version="1.1"
   id="svg26"
   sodipodi:docname="cover-access.svg"
   inkscape:version="1.1.1 (3bf5ae0d25, 2021-09-20)"
   xmlns:inkscape="http://www.inkscape.org/namespaces/inkscape"
   xmlns:sodipodi="http://sodipodi.sourceforge.net/DTD/sodipodi-0.dtd"
   xmlns="http://www.w3.org/2000/svg"
   xmlns:svg="http://www.w3.org/2000/svg">
  <defs
     id="defs30" />
  <sodipodi:namedview
     id="namedview28"
     pagecolor="#ffffff"
     bordercolor="#666666"
     borderopacity="1.0"
     inkscape:pageshadow="2"
     inkscape:pageopacity="0.0"
     inkscape:pagecheckerboard="0"
     inkscape:document-units="mm"
     showgrid="false"
     inkscape:zoom="0.64052329"
     inkscape:cx="397.33138"
     inkscape:cy="561.25984"
     inkscape:window-width="1920"
     inkscape:window-height="1017"
     inkscape:window-x="1912"
     inkscape:window-y="-8"
     inkscape:window-maximized="1"
     inkscape:current-layer="svg26" />
  <g
     fill="#a4373a"
     id="g16">
    <text
       font-family="'Arial Rounded MT Bold'"
       font-size="25.4px"
       stroke-width="0.264583"
       word-spacing="0.627062"
       x="4.0352526"
       xml:space="preserve"
       y="76.308769"
       id="text4"><tspan
         fill="#a4373a"
         font-family="'Arial Rounded MT Bold'"
         font-size="25.4px"
         stroke-width="0.264583"
         x="4.0352526"
         y="76.308769"
         id="tspan2">LEARN ACCESS</tspan></text>
    <text
       font-family="sans-serif"
       font-size="12.7"
       stroke-width=".264583"
       word-spacing="0"
       x="65.03965"
       y="279.57498"
       id="text12"><tspan
         fill="#a4373a"
         font-size="12.7"
         stroke-width=".264583"
         x="65.03965"
         y="279.57498"
         id="tspan10">Ben Welman</tspan></text>
    <path
       d="m.427507 135h210v120h-210z"
       fill-rule="evenodd"
       id="path14" />
  </g>
  <path
     d="m79.285717 162.85714c-4.287164 0-24.858593.43002-25.71429 9.8557v44.35714c.642862 9.64285 21.427126 10.07287 25.71429 10.07287 4.287158 0 25.714283-.43002 25.714283-10.49854v-43.28861c0-10.06854-21.427125-10.49856-25.714283-10.49856z"
     fill="#fff"
     stroke-width=".264583"
     id="path18" />
  <path
     d="m100.28717 207.6443c-2.141424 2.78427-10.715742 4.93003-21.001453 4.93003-11.784268 0-21.427126-2.78427-21.427126-6.21573v10.28571c0 3.42711 9.642858 6.21573 21.427126 6.21573 11.784264 0 21.427123-2.78427 21.427123-6.21573v-9.00001c0-.21718-.21284-.21718-.42567 0zm0-14.36003c-2.141424 2.78426-10.715742 4.93002-21.001453 4.93002-11.784268 0-21.427126-2.78427-21.427126-6.21574v10.28572c0 3.42712 9.642858 6.21573 21.427126 6.21573 11.784264 0 21.427123-2.78426 21.427123-6.21573v-9c0-.21284-.21284-.21284-.42567 0zm0-14.56854c-1.928578 2.78427-10.715742 4.93002-21.001453 4.93002-11.784268 0-21.427126-2.78426-21.427126-6.21573v10.28571c0 3.42712 9.642858 6.21574 21.427126 6.21574 11.784264 0 21.427123-2.78426 21.427123-6.21574v-9c-.11293-.12161-.30405-.12161-.42567 0 0-.004 0-.004 0 0zm-21.001453.8557c11.784264 0 21.427123-2.78426 21.427123-6.21573s-9.642859-6.21574-21.427123-6.21574c-11.784268 0-21.427126 2.78427-21.427126 6.21574s9.642858 6.21573 21.427126 6.21573z"
     fill="#a4373a"
     stroke-width=".264583"
     id="path20" />
  <path
     d="m68.569981 150-53.569981 9.43002v71.1443l53.569981 9.42568z"
     fill="#fff"
     stroke-width=".264583"
     id="path22" />
  <path
     d="m37.287165 197.35859 3.383684-13.49999.125963-1.19451.130312 1.19451 3.427126 13.49999zm7.714282-21.85715-7.501447.42569-9.855697 34.71428 6.428572.43002 1.928572-7.71429 10.072875.43002 2.141416 8.14431 7.501445.43002z"
     fill="#a4373a"
     stroke-width=".264583"
     id="path24" />
</svg>
